<?xml version="1.0" encoding="UTF-8"?>
<svg xmlns="http://www.w3.org/2000/svg" xmlns:xlink="http://www.w3.org/1999/xlink" width="75pt" height="75pt" viewBox="0 0 75 75" version="1.1">
<g id="surface1">
<path style=" stroke:none;fill-rule:evenodd;fill:rgb(0%,0%,0%);fill-opacity:1;" d="M 14.582031 20 C 14.582031 22.53125 12.53125 24.582031 10 24.582031 C 7.46875 24.582031 5.417969 22.53125 5.417969 20 C 5.417969 17.46875 7.46875 15.417969 10 15.417969 C 12.53125 15.417969 14.582031 17.46875 14.582031 20 Z M 14.582031 20 "/>
<path style=" stroke:none;fill-rule:evenodd;fill:rgb(0%,0%,0%);fill-opacity:1;" d="M 27.917969 15 C 27.917969 17.53125 25.863281 19.582031 23.332031 19.582031 C 20.800781 19.582031 18.75 17.53125 18.75 15 C 18.75 12.46875 20.800781 10.417969 23.332031 10.417969 C 25.863281 10.417969 27.917969 12.46875 27.917969 15 Z M 27.917969 15 "/>
<path style=" stroke:none;fill-rule:evenodd;fill:rgb(0%,0%,0%);fill-opacity:1;" d="M 42.082031 13.332031 C 42.082031 15.863281 40.03125 17.917969 37.5 17.917969 C 34.96875 17.917969 32.917969 15.863281 32.917969 13.332031 C 32.917969 10.800781 34.96875 8.75 37.5 8.75 C 40.03125 8.75 42.082031 10.800781 42.082031 13.332031 Z M 42.082031 13.332031 "/>
<path style=" stroke:none;fill-rule:evenodd;fill:rgb(0%,0%,0%);fill-opacity:1;" d="M 56.25 15 C 56.25 17.53125 54.199219 19.582031 51.667969 19.582031 C 49.136719 19.582031 47.082031 17.53125 47.082031 15 C 47.082031 12.46875 49.136719 10.417969 51.667969 10.417969 C 54.199219 10.417969 56.25 12.46875 56.25 15 Z M 56.25 15 "/>
<path style=" stroke:none;fill-rule:evenodd;fill:rgb(0%,0%,0%);fill-opacity:1;" d="M 69.582031 20 C 69.582031 22.53125 67.53125 24.582031 65 24.582031 C 62.46875 24.582031 60.417969 22.53125 60.417969 20 C 60.417969 17.46875 62.46875 15.417969 65 15.417969 C 67.53125 15.417969 69.582031 17.46875 69.582031 20 Z M 69.582031 20 "/>
<path style="fill-rule:evenodd;fill:rgb(0%,0%,0%);fill-opacity:1;stroke-width:1.5;stroke-linecap:butt;stroke-linejoin:round;stroke:rgb(0%,0%,0%);stroke-opacity:1;stroke-miterlimit:4;" d="M 9 25.999219 C 17.500781 24.499219 30 24.499219 36 25.999219 L 38.500781 13.5 L 31.000781 25.000781 L 30.700781 10.900781 L 25.5 24.499219 L 22.5 10.000781 L 19.5 24.499219 L 14.299219 10.900781 L 13.999219 25.000781 L 6.499219 13.5 Z M 9 25.999219 " transform="matrix(1.666667,0,0,1.666667,0,0)"/>
<path style="fill-rule:evenodd;fill:rgb(0%,0%,0%);fill-opacity:1;stroke-width:1.5;stroke-linecap:butt;stroke-linejoin:round;stroke:rgb(0%,0%,0%);stroke-opacity:1;stroke-miterlimit:4;" d="M 9 25.999219 C 9 28.000781 10.5 28.000781 11.500781 30 C 12.499219 31.5 12.499219 31.000781 12 33.499219 C 10.5 34.5 10.5 36 10.5 36 C 9 37.5 10.999219 38.500781 10.999219 38.500781 C 17.500781 39.499219 27.499219 39.499219 34.000781 38.500781 C 34.000781 38.500781 35.500781 37.5 34.000781 36 C 34.000781 36 34.5 34.5 33 33.499219 C 32.500781 31.000781 32.500781 31.5 33.499219 30 C 34.5 28.000781 36 28.000781 36 25.999219 C 27.499219 24.499219 17.500781 24.499219 9 25.999219 Z M 9 25.999219 " transform="matrix(1.666667,0,0,1.666667,0,0)"/>
<path style="fill:none;stroke-width:1.5;stroke-linecap:butt;stroke-linejoin:round;stroke:rgb(0%,0%,0%);stroke-opacity:1;stroke-miterlimit:4;" d="M 10.999219 38.500781 C 18.447656 41.090625 26.552344 41.090625 34.000781 38.500781 " transform="matrix(1.666667,0,0,1.666667,0,0)"/>
<path style="fill:none;stroke-width:1.5;stroke-linecap:round;stroke-linejoin:round;stroke:rgb(92.54902%,92.54902%,92.54902%);stroke-opacity:1;stroke-miterlimit:4;" d="M 10.999219 28.999219 C 18.447656 26.409375 26.552344 26.409375 34.000781 28.999219 M 12.499219 31.5 L 32.500781 31.5 M 11.500781 34.5 C 18.642187 36.864844 26.357812 36.864844 33.499219 34.5 M 10.5 37.5 C 18.250781 40.328906 26.749219 40.328906 34.5 37.5 " transform="matrix(1.666667,0,0,1.666667,0,0)"/>
</g>
</svg>
