<?xml version="1.0" encoding="UTF-8"?>
<svg xmlns="http://www.w3.org/2000/svg" xmlns:xlink="http://www.w3.org/1999/xlink" width="75pt" height="75pt" viewBox="0 0 75 75" version="1.1">
<g id="surface1">
<path style="fill-rule:evenodd;fill:rgb(0%,0%,0%);fill-opacity:1;stroke-width:1.5;stroke-linecap:round;stroke-linejoin:round;stroke:rgb(0%,0%,0%);stroke-opacity:1;stroke-miterlimit:4;" d="M 22.000781 10.000781 C 32.500781 10.999219 38.500781 18 37.999219 39 L 15 39 C 15 30 25.000781 32.500781 22.999219 18 " transform="matrix(1.666667,0,0,1.666667,0,0)"/>
<path style="fill-rule:evenodd;fill:rgb(0%,0%,0%);fill-opacity:1;stroke-width:1.5;stroke-linecap:round;stroke-linejoin:round;stroke:rgb(0%,0%,0%);stroke-opacity:1;stroke-miterlimit:4;" d="M 24 18 C 24.379687 20.910937 18.45 25.371094 16.000781 27 C 13.000781 28.999219 13.178906 31.340625 10.999219 31.000781 C 9.958594 30.060937 12.410156 27.960938 10.999219 28.000781 C 10.000781 28.000781 11.189063 29.228906 10.000781 30 C 9 30 5.997656 31.000781 6 25.999219 C 6 24 12 13.999219 12 13.999219 C 12 13.999219 13.889062 12.100781 13.999219 10.5 C 13.270312 9.50625 13.5 8.500781 13.5 7.5 C 14.500781 6.499219 16.5 10.000781 16.5 10.000781 L 18.499219 10.000781 C 18.499219 10.000781 19.279687 8.008594 21 7.000781 C 22.000781 7.000781 22.000781 10.000781 22.000781 10.000781 " transform="matrix(1.666667,0,0,1.666667,0,0)"/>
<path style="fill-rule:evenodd;fill:rgb(92.54902%,92.54902%,92.54902%);fill-opacity:1;stroke-width:1.5;stroke-linecap:round;stroke-linejoin:round;stroke:rgb(92.54902%,92.54902%,92.54902%);stroke-opacity:1;stroke-miterlimit:4;" d="M 9.499219 25.5 C 9.499219 25.776563 9.276562 25.999219 9 25.999219 C 8.723437 25.999219 8.500781 25.776563 8.500781 25.5 C 8.500781 25.223437 8.723437 25.000781 9 25.000781 C 9.276562 25.000781 9.499219 25.223437 9.499219 25.5 Z M 14.932031 15.75 C 14.664844 16.216406 14.332031 16.600781 14.0625 16.757812 C 13.795312 16.914844 13.628906 16.81875 13.628906 16.507031 C 13.628906 16.195312 13.797656 15.714844 14.067187 15.250781 C 14.334375 14.784375 14.667187 14.397656 14.936719 14.242969 C 15.20625 14.085938 15.372656 14.182031 15.370312 14.49375 C 15.370312 14.805469 15.203906 15.283594 14.932031 15.75 Z M 14.932031 15.75 " transform="matrix(1.666667,0,0,1.666667,0,0)"/>
<path style=" stroke:none;fill-rule:evenodd;fill:rgb(92.54902%,92.54902%,92.54902%);fill-opacity:1;" d="M 40.917969 17.332031 L 40.167969 19.75 L 41 20 C 46.25 21.667969 50.417969 24.148438 54.167969 31.25 C 57.917969 38.351562 59.582031 48.433594 58.75 65 L 58.667969 65.832031 L 62.417969 65.832031 L 62.5 65 C 63.332031 48.234375 61.035156 36.917969 57.082031 29.433594 C 53.132812 21.949219 47.433594 18.367188 41.765625 17.5 Z M 40.917969 17.332031 "/>
</g>
</svg>
