<?xml version="1.0" encoding="UTF-8"?>
<svg xmlns="http://www.w3.org/2000/svg" xmlns:xlink="http://www.w3.org/1999/xlink" width="75pt" height="75pt" viewBox="0 0 75 75" version="1.1">
<g id="surface1">
<path style="fill:none;stroke-width:1.5;stroke-linecap:round;stroke-linejoin:miter;stroke:rgb(0%,0%,0%);stroke-opacity:1;stroke-miterlimit:4;" d="M 22.5 11.629687 L 22.5 6 " transform="matrix(1.666667,0,0,1.666667,0,0)"/>
<path style="fill-rule:evenodd;fill:rgb(0%,0%,0%);fill-opacity:1;stroke-width:1.5;stroke-linecap:butt;stroke-linejoin:miter;stroke:rgb(0%,0%,0%);stroke-opacity:1;stroke-miterlimit:4;" d="M 22.5 25.000781 C 22.5 25.000781 27 17.500781 25.5 14.500781 C 25.5 14.500781 24.499219 12 22.5 12 C 20.500781 12 19.5 14.500781 19.5 14.500781 C 18 17.500781 22.5 25.000781 22.5 25.000781 " transform="matrix(1.666667,0,0,1.666667,0,0)"/>
<path style="fill-rule:evenodd;fill:rgb(0%,0%,0%);fill-opacity:1;stroke-width:1.5;stroke-linecap:round;stroke-linejoin:round;stroke:rgb(0%,0%,0%);stroke-opacity:1;stroke-miterlimit:4;" d="M 11.500781 37.000781 C 16.999219 40.5 27 40.5 32.500781 37.000781 L 32.500781 30 C 32.500781 30 41.500781 25.5 38.500781 19.5 C 34.5 13.000781 25.000781 16.000781 22.5 23.500781 L 22.5 27 L 22.5 23.500781 C 19.000781 16.000781 9.499219 13.000781 6.499219 19.5 C 3.499219 25.5 11.500781 29.500781 11.500781 29.500781 Z M 11.500781 37.000781 " transform="matrix(1.666667,0,0,1.666667,0,0)"/>
<path style="fill:none;stroke-width:1.5;stroke-linecap:round;stroke-linejoin:miter;stroke:rgb(0%,0%,0%);stroke-opacity:1;stroke-miterlimit:4;" d="M 19.999219 7.999219 L 25.000781 7.999219 " transform="matrix(1.666667,0,0,1.666667,0,0)"/>
<path style="fill:none;stroke-width:1.5;stroke-linecap:round;stroke-linejoin:round;stroke:rgb(92.54902%,92.54902%,92.54902%);stroke-opacity:1;stroke-miterlimit:4;" d="M 31.999219 29.500781 C 31.999219 29.500781 40.5 25.5 38.029688 19.849219 C 34.150781 13.999219 25.000781 18 22.5 24.499219 L 22.509375 26.599219 L 22.5 24.499219 C 19.999219 18 9.907031 13.999219 6.996094 19.849219 C 4.5 25.5 11.85 28.849219 11.85 28.849219 " transform="matrix(1.666667,0,0,1.666667,0,0)"/>
<path style="fill:none;stroke-width:1.5;stroke-linecap:round;stroke-linejoin:round;stroke:rgb(92.54902%,92.54902%,92.54902%);stroke-opacity:1;stroke-miterlimit:4;" d="M 11.500781 30 C 16.999219 27 27 27 32.500781 30 M 11.500781 33.499219 C 16.999219 30.499219 27 30.499219 32.500781 33.499219 M 11.500781 37.000781 C 16.999219 34.000781 27 34.000781 32.500781 37.000781 " transform="matrix(1.666667,0,0,1.666667,0,0)"/>
</g>
</svg>
