<?xml version="1.0" encoding="UTF-8"?>
<svg xmlns="http://www.w3.org/2000/svg" xmlns:xlink="http://www.w3.org/1999/xlink" width="75pt" height="75pt" viewBox="0 0 75 75" version="1.1">
<g id="surface1">
<path style="fill-rule:evenodd;fill:rgb(0%,0%,0%);fill-opacity:1;stroke-width:1.5;stroke-linecap:butt;stroke-linejoin:round;stroke:rgb(0%,0%,0%);stroke-opacity:1;stroke-miterlimit:4;" d="M 9 36 C 12.389062 35.029688 19.110937 36.428906 22.5 34.000781 C 25.889062 36.428906 32.610937 35.029688 36 36 C 36 36 37.65 36.539062 39 37.999219 C 38.320312 38.969531 37.35 38.990625 36 38.500781 C 32.610937 37.530469 25.889062 38.960156 22.5 37.5 C 19.110937 38.960156 12.389062 37.530469 9 38.500781 C 7.645312 38.990625 6.677344 38.969531 6 37.999219 C 7.354687 36.060938 9 36 9 36 Z M 9 36 " transform="matrix(1.666667,0,0,1.666667,0,0)"/>
<path style="fill-rule:evenodd;fill:rgb(0%,0%,0%);fill-opacity:1;stroke-width:1.5;stroke-linecap:butt;stroke-linejoin:round;stroke:rgb(0%,0%,0%);stroke-opacity:1;stroke-miterlimit:4;" d="M 15 31.999219 C 17.500781 34.5 27.499219 34.5 30 31.999219 C 30.499219 30.499219 30 30 30 30 C 30 27.499219 27.499219 25.999219 27.499219 25.999219 C 33 24.499219 33.499219 14.500781 22.5 10.5 C 11.500781 14.500781 12 24.499219 17.500781 25.999219 C 17.500781 25.999219 15 27.499219 15 30 C 15 30 14.500781 30.499219 15 31.999219 Z M 15 31.999219 " transform="matrix(1.666667,0,0,1.666667,0,0)"/>
<path style="fill-rule:evenodd;fill:rgb(0%,0%,0%);fill-opacity:1;stroke-width:1.5;stroke-linecap:butt;stroke-linejoin:round;stroke:rgb(0%,0%,0%);stroke-opacity:1;stroke-miterlimit:4;" d="M 25.000781 7.999219 C 25.000781 9.379687 23.880469 10.5 22.5 10.5 C 21.119531 10.5 19.999219 9.379687 19.999219 7.999219 C 19.999219 6.61875 21.119531 5.500781 22.5 5.500781 C 23.880469 5.500781 25.000781 6.61875 25.000781 7.999219 Z M 25.000781 7.999219 " transform="matrix(1.666667,0,0,1.666667,0,0)"/>
<path style="fill:none;stroke-width:1.5;stroke-linecap:round;stroke-linejoin:miter;stroke:rgb(92.54902%,92.54902%,92.54902%);stroke-opacity:1;stroke-miterlimit:4;" d="M 17.500781 25.999219 L 27.499219 25.999219 M 15 30 L 30 30 M 22.5 15.499219 L 22.5 20.500781 M 19.999219 18 L 25.000781 18 " transform="matrix(1.666667,0,0,1.666667,0,0)"/>
</g>
</svg>
