<?xml version="1.0" encoding="UTF-8"?>
<svg xmlns="http://www.w3.org/2000/svg" xmlns:xlink="http://www.w3.org/1999/xlink" width="75pt" height="75pt" viewBox="0 0 75 75" version="1.1">
<g id="surface1">
<path style="fill-rule:evenodd;fill:rgb(100%,100%,100%);fill-opacity:1;stroke-width:1.5;stroke-linecap:round;stroke-linejoin:round;stroke:rgb(0%,0%,0%);stroke-opacity:1;stroke-miterlimit:4;" d="M 7.999219 12 C 7.999219 13.103906 7.103906 13.999219 6 13.999219 C 4.896094 13.999219 4.000781 13.103906 4.000781 12 C 4.000781 10.896094 4.896094 10.000781 6 10.000781 C 7.103906 10.000781 7.999219 10.896094 7.999219 12 Z M 24.499219 7.5 C 24.499219 8.603906 23.603906 9.499219 22.5 9.499219 C 21.396094 9.499219 20.500781 8.603906 20.500781 7.5 C 20.500781 6.396094 21.396094 5.500781 22.5 5.500781 C 23.603906 5.500781 24.499219 6.396094 24.499219 7.5 Z M 40.999219 12 C 40.999219 13.103906 40.103906 13.999219 39 13.999219 C 37.896094 13.999219 37.000781 13.103906 37.000781 12 C 37.000781 10.896094 37.896094 10.000781 39 10.000781 C 40.103906 10.000781 40.999219 10.896094 40.999219 12 Z M 16.000781 8.500781 C 16.000781 9.604687 15.105469 10.5 13.999219 10.5 C 12.895312 10.5 12 9.604687 12 8.500781 C 12 7.394531 12.895312 6.499219 13.999219 6.499219 C 15.105469 6.499219 16.000781 7.394531 16.000781 8.500781 Z M 33 9 C 33 10.103906 32.104687 10.999219 31.000781 10.999219 C 29.894531 10.999219 28.999219 10.103906 28.999219 9 C 28.999219 7.896094 29.894531 7.000781 31.000781 7.000781 C 32.104687 7.000781 33 7.896094 33 9 Z M 33 9 " transform="matrix(1.666667,0,0,1.666667,0,0)"/>
<path style="fill-rule:evenodd;fill:rgb(100%,100%,100%);fill-opacity:1;stroke-width:1.5;stroke-linecap:butt;stroke-linejoin:round;stroke:rgb(0%,0%,0%);stroke-opacity:1;stroke-miterlimit:4;" d="M 9 25.999219 C 17.500781 24.499219 30 24.499219 36 25.999219 L 37.999219 13.999219 L 31.000781 25.000781 L 31.000781 10.999219 L 25.5 24.499219 L 22.5 9.499219 L 19.5 24.499219 L 13.999219 10.5 L 13.999219 25.000781 L 7.000781 13.999219 Z M 9 25.999219 " transform="matrix(1.666667,0,0,1.666667,0,0)"/>
<path style="fill-rule:evenodd;fill:rgb(100%,100%,100%);fill-opacity:1;stroke-width:1.5;stroke-linecap:butt;stroke-linejoin:round;stroke:rgb(0%,0%,0%);stroke-opacity:1;stroke-miterlimit:4;" d="M 9 25.999219 C 9 28.000781 10.5 28.000781 11.500781 30 C 12.499219 31.5 12.499219 31.000781 12 33.499219 C 10.5 34.5 10.5 36 10.5 36 C 9 37.5 10.999219 38.500781 10.999219 38.500781 C 17.500781 39.499219 27.499219 39.499219 34.000781 38.500781 C 34.000781 38.500781 35.500781 37.5 34.000781 36 C 34.000781 36 34.5 34.5 33 33.499219 C 32.500781 31.000781 32.500781 31.5 33.499219 30 C 34.5 28.000781 36 28.000781 36 25.999219 C 27.499219 24.499219 17.500781 24.499219 9 25.999219 Z M 9 25.999219 " transform="matrix(1.666667,0,0,1.666667,0,0)"/>
<path style="fill:none;stroke-width:1.5;stroke-linecap:round;stroke-linejoin:round;stroke:rgb(0%,0%,0%);stroke-opacity:1;stroke-miterlimit:4;" d="M 11.500781 30 C 15 28.999219 30 28.999219 33.499219 30 M 12 33.499219 C 18 32.500781 27 32.500781 33 33.499219 " transform="matrix(1.666667,0,0,1.666667,0,0)"/>
</g>
</svg>
