<?xml version="1.0" encoding="UTF-8"?>
<svg xmlns="http://www.w3.org/2000/svg" xmlns:xlink="http://www.w3.org/1999/xlink" width="75pt" height="75pt" viewBox="0 0 75 75" version="1.1">
<g id="surface1">
<path style="fill-rule:nonzero;fill:rgb(100%,100%,100%);fill-opacity:1;stroke-width:1.5;stroke-linecap:round;stroke-linejoin:miter;stroke:rgb(0%,0%,0%);stroke-opacity:1;stroke-miterlimit:4;" d="M 22.5 9 C 20.289844 9 18.499219 10.790625 18.499219 13.000781 C 18.499219 13.889062 18.789844 14.709375 19.279687 15.379687 C 17.329687 16.5 16.000781 18.590625 16.000781 21 C 16.000781 23.029687 16.940625 24.839063 18.410156 26.029687 C 15.410156 27.089063 10.999219 31.579687 10.999219 39.499219 L 34.000781 39.499219 C 34.000781 31.579687 29.589844 27.089063 26.589844 26.029687 C 28.059375 24.839063 28.999219 23.029687 28.999219 21 C 28.999219 18.590625 27.670312 16.5 25.720312 15.379687 C 26.210156 14.709375 26.500781 13.889062 26.500781 13.000781 C 26.500781 10.790625 24.710156 9 22.5 9 Z M 22.5 9 " transform="matrix(1.666667,0,0,1.666667,0,0)"/>
</g>
</svg>
